<svg width="70" height="70" viewBox="0 0 70 70" fill="none" xmlns="http://www.w3.org/2000/svg">
<g clip-path="url(#clip0_7_60)">
<path d="M10.1992 40.5895L36.7223 14.0664C37.557 13.2292 38.6414 12.6863 39.8119 12.5198C39.8119 12.5198 67.1262 8.62331 67.2488 8.61415C67.3637 7.08106 66.8361 5.50873 65.6637 4.33632C64.3974 3.07012 62.6649 2.55467 61.0189 2.7897L33.9488 6.6568C32.7784 6.82325 31.6939 7.36614 30.8593 8.20343L4.33632 34.7265C2.20056 36.8623 2.20056 40.3251 4.33632 42.4609L10.1992 48.3237C8.06356 46.1878 8.06356 42.7252 10.1992 40.5895Z" fill="#FFD0D0"/>
<path fill-rule="evenodd" clip-rule="evenodd" d="M60.7714 1.05711C62.9392 0.74739 65.229 1.42657 66.9011 3.09871C68.5732 4.77085 69.2524 7.06056 68.9427 9.22844L65.0757 36.2973C65.0757 36.2977 65.0758 36.297 65.0757 36.2973C64.8556 37.8436 64.1382 39.2773 63.032 40.3799L44.2451 59.1668C43.5617 59.8502 42.4536 59.8502 41.7702 59.1668C41.0868 58.4834 41.0868 57.3754 41.7702 56.6919L60.5591 37.903L60.5611 37.9011C61.1293 37.3347 61.4977 36.5988 61.6106 35.8045L65.4779 8.73345C65.6385 7.60929 65.2865 6.43384 64.4262 5.57358C63.566 4.71332 62.3905 4.36132 61.2664 4.52193L34.1963 8.38904C33.4021 8.50199 32.6651 8.87054 32.0987 9.43872L5.57377 35.9639C4.12142 37.4163 4.12141 39.771 5.57376 41.2234L28.7767 64.4263C30.229 65.8786 32.5838 65.8786 34.0361 64.4263C34.7196 63.7429 35.8276 63.7429 36.511 64.4263C37.1944 65.1097 37.1944 66.2177 36.511 66.9012C33.6918 69.7204 29.121 69.7204 26.3018 66.9012L3.09889 43.6983C0.279702 40.8791 0.279702 36.3082 3.09888 33.4891L29.6199 6.96778C29.6203 6.96737 29.6207 6.96696 29.6211 6.96655C30.7236 5.86107 32.1556 5.14424 33.7014 4.92421C33.7011 4.92426 33.7017 4.92417 33.7014 4.92421L60.7714 1.05711ZM50.8912 12.7666C51.5747 12.0832 52.6827 12.0832 53.3661 12.7666L57.2332 16.6339C57.9166 17.3173 57.9166 18.4253 57.2332 19.1087C56.5497 19.7921 55.4417 19.7921 54.7583 19.1087L50.8912 15.2415C50.2078 14.558 50.2078 13.45 50.8912 12.7666Z" fill="#262626"/>
<path fill-rule="evenodd" clip-rule="evenodd" d="M47.5654 22.4346C48.2488 23.118 48.2488 24.226 47.5654 24.9095L44.7845 27.6902C45.805 29.3876 46.0648 31.4131 45.5678 33.2741C45.3184 34.2078 44.3593 34.7627 43.4255 34.5133C42.4917 34.2639 41.9369 33.3048 42.1863 32.371C42.519 31.1252 42.1952 29.7485 41.2234 28.7767C39.7711 27.3243 37.4163 27.3243 35.9639 28.7767C34.5116 30.229 34.5116 32.5838 35.9639 34.0361C38.7831 36.8553 38.7831 41.426 35.9639 44.2452C33.5715 46.6377 29.9175 46.9998 27.1432 45.3316L24.3625 48.1123C23.6791 48.7958 22.571 48.7958 21.8876 48.1123C21.2042 47.4289 21.2042 46.3209 21.8876 45.6375L24.6684 42.8567C23.648 41.1593 23.3883 39.1337 23.8852 37.2729C24.1346 36.3392 25.0938 35.7844 26.0276 36.0338C26.9613 36.2832 27.5161 37.2423 27.2667 38.1761C26.934 39.4217 27.2578 40.7986 28.2296 41.7704C29.682 43.2227 32.0367 43.2227 33.4891 41.7704C34.9414 40.318 34.9414 37.9634 33.4891 36.511C30.6699 33.6918 30.6699 29.121 33.4891 26.3018C35.8815 23.9094 39.5354 23.5472 42.3097 25.2153L45.0905 22.4345C45.774 21.7511 46.882 21.7512 47.5654 22.4346Z" fill="#FF4B4B"/>
</g>
<defs>
<clipPath id="clip0_7_60">
<rect width="70" height="70" fill="white"/>
</clipPath>
</defs>
</svg>
