<svg width="30" height="21" viewBox="0 0 30 21" fill="none" xmlns="http://www.w3.org/2000/svg">
<g clip-path="url(#clip0_122_723)">
<path d="M18.418 0.700195H11.582L8.16406 4.3752H4.0625C3.3373 4.3752 2.6418 4.63332 2.129 5.09278C1.61621 5.55225 1.32813 6.17541 1.32812 6.8252V17.8502C1.32813 18.5 1.61621 19.1231 2.129 19.5826C2.6418 20.0421 3.3373 20.3002 4.0625 20.3002H25.9375C26.6627 20.3002 27.3582 20.0421 27.871 19.5826C28.3838 19.1231 28.6719 18.5 28.6719 17.8502V6.8252C28.6719 6.17541 28.3838 5.55225 27.871 5.09278C27.3582 4.63332 26.6627 4.3752 25.9375 4.3752H21.8359L18.418 0.700195Z" stroke="#D7D7D7" stroke-linecap="round" stroke-linejoin="round"/>
<path d="M15 15.4C17.2652 15.4 19.1016 13.7547 19.1016 11.725C19.1016 9.6954 17.2652 8.05005 15 8.05005C12.7348 8.05005 10.8984 9.6954 10.8984 11.725C10.8984 13.7547 12.7348 15.4 15 15.4Z" stroke="#D7D7D7" stroke-linecap="round" stroke-linejoin="round"/>
</g>
<defs>
<clipPath id="clip0_122_723">
<rect width="30" height="21" fill="white"/>
</clipPath>
</defs>
</svg>
