<svg width="40" height="40" viewBox="0 0 40 40" fill="none" xmlns="http://www.w3.org/2000/svg">
<g clip-path="url(#clip0_240_301)">
<path d="M0 0H40V40H0V0Z" fill="#FF4B4B"/>
<path d="M31.1111 25.4667V28.8C31.1124 29.1094 31.049 29.4157 30.925 29.6993C30.801 29.9828 30.6192 30.2373 30.3912 30.4465C30.1632 30.6557 29.894 30.815 29.6008 30.9141C29.3077 31.0133 28.9971 31.0501 28.6889 31.0222C25.2698 30.6507 21.9856 29.4824 19.1 27.6111C16.4154 25.9052 14.1393 23.6291 12.4333 20.9444C10.5555 18.0458 9.38694 14.7456 9.02222 11.3111C8.99446 11.0039 9.03097 10.6942 9.12945 10.4018C9.22792 10.1094 9.38619 9.84077 9.59418 9.61291C9.80218 9.38506 10.0553 9.20301 10.3375 9.07836C10.6198 8.95371 10.9248 8.88918 11.2333 8.88889H14.5667C15.1059 8.88358 15.6287 9.07453 16.0375 9.42615C16.4464 9.77776 16.7134 10.2661 16.7889 10.8C16.9296 11.8667 17.1905 12.9141 17.5667 13.9222C17.7162 14.3199 17.7485 14.7521 17.6599 15.1676C17.5713 15.5832 17.3654 15.9646 17.0667 16.2667L15.6556 17.6778C17.2373 20.4595 19.5405 22.7627 22.3222 24.3444L23.7333 22.9333C24.0354 22.6346 24.4168 22.4287 24.8324 22.3401C25.2479 22.2515 25.6801 22.2838 26.0778 22.4333C27.0859 22.8095 28.1333 23.0704 29.2 23.2111C29.7397 23.2873 30.2327 23.5591 30.585 23.975C30.9374 24.3909 31.1246 24.9218 31.1111 25.4667Z" fill="white"/>
</g>
<defs>
<clipPath id="clip0_240_301">
<rect width="40" height="40" rx="20" fill="white"/>
</clipPath>
</defs>
</svg>
