<svg width="40" height="40" viewBox="0 0 40 40" fill="none" xmlns="http://www.w3.org/2000/svg">
<g clip-path="url(#clip0_2_31)">
<path d="M20 0C8.95601 0 0 8.95601 0 20C0 31.044 8.95601 40 20 40C31.044 40 40 31.044 40 20C40 8.95601 31.044 0 20 0ZM20.4239 31.6445C20.4236 31.6445 20.4242 31.6445 20.4239 31.6445H20.419C18.4155 31.6437 16.4469 31.1414 14.6985 30.188L8.35297 31.8521L10.0513 25.6509C9.00359 23.8363 8.45242 21.7777 8.45336 19.6686C8.45609 13.0707 13.826 7.70297 20.4239 7.70297C23.6258 7.70414 26.6315 8.95047 28.8913 11.2122C31.1515 13.4741 32.3953 16.4807 32.3941 19.678C32.3913 26.2762 27.0209 31.6446 20.4238 31.6446L20.4239 31.6445Z" fill="#FF4B4B"/>
<path d="M20.4279 9.72412C14.9399 9.72412 10.4767 14.1854 10.4742 19.6694C10.4737 21.5487 10.9998 23.3789 11.9956 24.9624L12.2321 25.3387L11.2268 29.009L14.9924 28.0215L15.3559 28.237C16.8832 29.1433 18.6344 29.6228 20.4196 29.6234H20.4235C25.9073 29.6234 30.3705 25.1617 30.3729 19.6774C30.3739 17.0196 29.3399 14.5208 27.4616 12.641C25.5832 10.7611 23.085 9.72498 20.4279 9.72412ZM26.2799 23.9456C26.0306 24.6438 24.8358 25.2814 24.2612 25.3675C23.7457 25.4443 23.0939 25.4764 22.3774 25.249C21.9428 25.1111 21.3858 24.9271 20.6721 24.6191C17.6718 23.324 15.7123 20.304 15.5628 20.1043C15.4132 19.9047 14.3414 18.4829 14.3414 17.0111C14.3414 15.5395 15.1141 14.816 15.3882 14.5169C15.6625 14.2175 15.9867 14.1427 16.1859 14.1427C16.3852 14.1427 16.5848 14.1446 16.7591 14.1531C16.9428 14.1622 17.1893 14.0833 17.432 14.6664C17.6813 15.2652 18.2795 16.7367 18.3542 16.8863C18.429 17.0361 18.4787 17.2107 18.3792 17.4103C18.2795 17.6098 17.948 18.0404 17.6316 18.4329C17.4988 18.5974 17.3258 18.7439 17.5003 19.0433C17.6746 19.3423 18.2752 20.3216 19.1642 21.1145C20.3067 22.1332 21.2704 22.4487 21.5696 22.5986C21.8683 22.7481 22.0428 22.723 22.2174 22.5238C22.3917 22.3242 22.9651 21.6507 23.1643 21.3513C23.3637 21.0519 23.5632 21.1019 23.8373 21.2018C24.1117 21.3012 25.582 22.0248 25.881 22.1744C26.1801 22.3242 26.3795 22.399 26.4542 22.5238C26.5292 22.6486 26.5292 23.2471 26.2799 23.9456Z" fill="#FF4B4B"/>
</g>
<defs>
<clipPath id="clip0_2_31">
<rect width="40" height="40" fill="white"/>
</clipPath>
</defs>
</svg>
